<?xml version="1.0" encoding="utf-8"?>
<svg version="1.1" xmlns:cc="http://creativecommons.org/ns#" xmlns:dc="http://purl.org/dc/elements/1.1/" xmlns:rdf="http://www.w3.org/1999/02/22-rdf-syntax-ns#" xmlns="http://www.w3.org/2000/svg" xmlns:xlink="http://www.w3.org/1999/xlink" x="0px" y="0px" viewBox="0 0 1024 768" xml:space="preserve">
<g transform="translate(512,384) scale(1.5 1.2)">
    <path id="path" d="M152.4,-201.9C199,-175.9,239.3,-133.4,249.6,-85C260,-36.7,240.3,17.5,217.4,65.3C194.5,113.1,168.4,154.4,131.6,187.1C94.8,219.9,47.4,243.9,-3.9,249.3C-55.3,254.7,-110.5,241.4,-152.5,210.4C-194.5,179.4,-223.3,130.6,-240,78.2C-256.8,25.8,-261.5,-30.4,-242.2,-75.2C-222.8,-120,-179.3,-153.4,-134.9,-180.2C-90.5,-206.9,-45.3,-227,3.8,-232.2C52.9,-237.5,105.8,-228,152.4,-201.9Z" fill="#3d91c3">
	</path>
</g>

<animate xlink:href="#path" attributeType="XML" dur="20s" repeatCount="indefinite" attributeName="d" keyTimes="0; 0.2; 0.4; 0.6; 0.8; 1" calcMode="spline" keySplines="0.9 0.1 0.1 0.9;0.9 0.1 0.1 0.9;0.9 0.1 0.1 0.9;0.9 0.1 0.1 0.9;0.9 0.1 0.1 0.9" values="M120.2,-176.8C149.6,-144.2,162.8,-100.7,175.5,-57.9C188.3,-15,200.7,27.1,195.6,70.1C190.6,113,168.2,156.8,132.7,178C97.2,199.1,48.6,197.5,4.9,190.8C-38.8,184.1,-77.6,172.1,-115.3,151.7C-153,131.3,-189.7,102.4,-205.6,64.2C-221.6,26.1,-216.8,-21.4,-204,-67.9C-191.2,-114.4,-170.2,-160,-134.9,-190.6C-99.5,-221.3,-49.8,-237.2,-2.2,-234.2C45.5,-231.2,90.9,-209.5,120.2,-176.8Z; M152.4,-201.9C199,-175.9,239.3,-133.4,249.6,-85C260,-36.7,240.3,17.5,217.4,65.3C194.5,113.1,168.4,154.4,131.6,187.1C94.8,219.9,47.4,243.9,-3.9,249.3C-55.3,254.7,-110.5,241.4,-152.5,210.4C-194.5,179.4,-223.3,130.6,-240,78.2C-256.8,25.8,-261.5,-30.4,-242.2,-75.2C-222.8,-120,-179.3,-153.4,-134.9,-180.2C-90.5,-206.9,-45.3,-227,3.8,-232.2C52.9,-237.5,105.8,-228,152.4,-201.9Z; M101.9,-120.6C144.2,-109.5,199.1,-96,223.6,-62.7C248.2,-29.4,242.5,23.8,220.4,65.3C198.2,106.8,159.7,136.8,120.2,173.1C80.7,209.4,40.4,252.2,-4.7,258.7C-49.8,265.2,-99.5,235.3,-119,192.5C-138.5,149.7,-127.8,93.8,-144.4,46.1C-161,-1.6,-205.1,-41.3,-214.9,-88C-224.7,-134.6,-200.2,-188.3,-158.7,-199.6C-117.2,-210.9,-58.6,-180,-14.4,-160.1C29.8,-140.3,59.6,-131.6,101.9,-120.6Z; M113.1,-161.5C148.6,-129.9,180.8,-99.5,181.6,-66.3C182.3,-33.1,151.5,3.1,132.4,37.1C113.2,71.2,105.7,103.2,85.6,142.9C65.4,182.7,32.7,230.4,-3.9,235.8C-40.6,241.2,-81.1,204.3,-114.7,168.9C-148.3,133.5,-175,99.5,-198.1,57.5C-221.3,15.5,-240.9,-34.6,-221,-64.4C-201.2,-94.2,-141.7,-103.7,-98.3,-132.8C-54.9,-161.8,-27.4,-210.4,5.7,-218.2C38.8,-226.1,77.6,-193.1,113.1,-161.5Z; M102,-143.7C138.9,-113.5,180.3,-92.8,196.8,-59.7C213.4,-26.7,205.1,18.6,190.6,61.5C176.1,104.4,155.4,144.8,122.5,162.7C89.7,180.5,44.9,175.8,-1.2,177.4C-47.2,179,-94.4,187,-113.8,164.8C-133.1,142.5,-124.6,90.1,-143.6,43.8C-162.6,-2.6,-209.2,-42.9,-216.4,-85.7C-223.7,-128.5,-191.5,-173.9,-148.8,-202.2C-106.2,-230.5,-53.1,-241.7,-10.3,-227.6C32.5,-213.4,65,-173.9,102,-143.7Z; M120.2,-176.8C149.6,-144.2,162.8,-100.7,175.5,-57.9C188.3,-15,200.7,27.1,195.6,70.1C190.6,113,168.2,156.8,132.7,178C97.2,199.1,48.6,197.5,4.9,190.8C-38.8,184.1,-77.6,172.1,-115.3,151.7C-153,131.3,-189.7,102.4,-205.6,64.2C-221.6,26.1,-216.8,-21.4,-204,-67.9C-191.2,-114.4,-170.2,-160,-134.9,-190.6C-99.5,-221.3,-49.8,-237.2,-2.2,-234.2C45.5,-231.2,90.9,-209.5,120.2,-176.8Z" fill="freeze"   />
<path d="m510.95 127.94c-1.29 0.01-4.36 0.08-6.83 0.16-2.47 0.07-5.9 0.22-7.63 0.33s-4.6 0.32-6.38 0.47c-1.77 0.15-4.68 0.44-6.46 0.63-1.78 0.2-4.73 0.56-6.56 0.81-1.82 0.25-5.26 0.77-7.63 1.17-2.37 0.39-6.13 1.08-8.35 1.53-2.22 0.44-5.78 1.22-7.9 1.72-2.13 0.5-5.36 1.31-7.19 1.79-1.82 0.49-4.97 1.38-6.99 1.97-2.02 0.6-5.33 1.64-7.36 2.31s-5.19 1.76-7.02 2.43c-1.82 0.66-5.33 2-7.79 2.99-2.46 0.98-6.21 2.55-8.35 3.5-2.13 0.94-6.39 2.94-9.45 4.45-3.06 1.5-7.37 3.72-9.56 4.92-2.2 1.21-5.36 3-7.03 3.98s-4.47 2.68-6.24 3.79c-1.76 1.1-5.04 3.24-7.28 4.76-2.25 1.51-5.55 3.81-7.34 5.11-1.8 1.31-4.79 3.56-6.65 5-1.85 1.45-4.69 3.73-6.31 5.08-1.61 1.34-4.06 3.43-5.44 4.64s-3.89 3.47-5.57 5.03-5.27 5.08-7.99 7.84c-2.72 2.75-6.03 6.21-7.37 7.69-1.33 1.48-3.6 4.07-5.04 5.75-1.45 1.68-3.82 4.55-5.28 6.37-1.47 1.83-3.81 4.86-5.2 6.74-1.4 1.88-3.4 4.62-4.44 6.11-1.03 1.48-2.7 3.9-3.69 5.39-0.99 1.48-2.81 4.31-4.04 6.28-1.23 1.98-3.17 5.21-4.31 7.18-1.14 1.98-2.84 5.01-3.78 6.74s-2.53 4.8-3.54 6.82-2.59 5.29-3.5 7.27c-0.92 1.98-2.24 4.93-2.93 6.56-0.7 1.63-1.85 4.42-2.56 6.2-0.71 1.77-1.83 4.72-2.5 6.55s-1.91 5.42-2.76 7.99c-0.84 2.57-2.06 6.49-2.7 8.71-0.65 2.22-1.5 5.3-1.9 6.83s-1.12 4.52-1.61 6.64-1.25 5.72-1.7 7.99c-0.45 2.28-1.06 5.59-1.35 7.37-0.3 1.78-0.74 4.64-0.99 6.37s-0.66 4.96-0.9 7.19c-0.25 2.22-0.58 5.53-0.73 7.36s-0.31 3.93-0.36 4.67-0.18 3-0.28 5.03c-0.1 2.02-0.19 7.32-0.19 11.76 0 4.45 0.09 9.86 0.19 12.03 0.11 2.17 0.32 5.53 0.47 7.45 0.14 1.93 0.43 5.08 0.62 7.01 0.2 1.92 0.56 5.08 0.81 7 0.25 1.93 0.81 5.7 1.26 8.38 0.44 2.68 1.08 6.32 1.44 8.08 0.35 1.77 1.07 5.15 1.61 7.52s1.5 6.26 2.15 8.66c0.64 2.39 1.69 6.07 2.32 8.17 0.64 2.1 1.81 5.72 2.59 8.04 0.79 2.32 1.92 5.52 2.51 7.1s1.56 4.09 2.16 5.59c0.6 1.49 1.7 4.14 2.44 5.88 0.75 1.74 2.13 4.84 3.09 6.89 0.95 2.05 2.33 4.94 3.07 6.42s2.03 3.98 2.88 5.57c0.84 1.58 2.54 4.65 3.77 6.82 1.24 2.17 3.01 5.2 3.96 6.73 0.94 1.53 2.6 4.16 3.69 5.84 1.08 1.68 2.78 4.22 3.77 5.66 0.99 1.43 2.85 4.06 4.14 5.84 1.29 1.77 3.51 4.72 4.94 6.55 1.42 1.83 3.94 4.94 5.59 6.91 1.65 1.98 3.83 4.52 4.84 5.66s3.2 3.52 4.86 5.3 4.41 4.61 6.12 6.28l3.09 3.06-2.41-2.61c-1.33-1.43-3.35-3.65-4.49-4.94-1.14-1.28-3.04-3.46-4.21-4.84-1.17-1.39-3.25-3.92-4.61-5.62-1.36-1.71-3.44-4.38-4.6-5.93-1.17-1.55-2.95-3.97-3.95-5.38-1.01-1.41-2.95-4.24-4.32-6.29-1.36-2.05-3-4.53-3.62-5.52-0.63-0.99-1.82-2.93-2.66-4.31-0.83-1.38-2.3-3.89-3.26-5.57s-2.34-4.14-3.06-5.47c-0.72-1.34-2.38-4.57-3.69-7.19-1.3-2.61-2.98-6.09-3.72-7.72-0.75-1.63-1.96-4.39-2.7-6.13-0.74-1.73-1.81-4.32-2.37-5.74s-1.51-3.88-2.1-5.46c-0.6-1.58-1.87-5.26-2.85-8.17-0.97-2.91-2.29-7.12-2.93-9.34s-1.61-5.78-2.15-7.9c-0.55-2.13-1.44-5.88-1.98-8.35-0.55-2.47-1.36-6.5-1.81-8.94-0.44-2.45-1.09-6.41-1.44-8.8-0.35-2.4-0.83-6.13-1.08-8.3-0.24-2.17-0.56-5.41-0.71-7.19-0.15-1.77-0.35-4.52-0.45-6.1-0.11-1.58-0.27-5.62-0.38-8.98-0.1-3.36-0.14-8.13-0.08-10.6s0.19-6.18 0.28-8.26c0.1-2.07 0.3-5.43 0.45-7.45 0.15-2.03 0.48-5.58 0.72-7.9 0.25-2.33 0.69-5.96 0.99-8.08 0.3-2.13 0.74-5.08 0.99-6.56 0.24-1.48 0.77-4.39 1.17-6.47 0.4-2.07 1.04-5.22 1.44-7 0.39-1.78 1.12-4.85 1.61-6.82 0.5-1.98 1.35-5.17 1.89-7.1 0.54-1.92 1.48-5.08 2.08-7 0.59-1.93 1.72-5.36 2.52-7.63 0.79-2.28 2.12-5.91 2.97-8.08 0.84-2.18 2.2-5.53 3.02-7.47 0.82-1.93 2.15-4.96 2.96-6.73s2.52-5.33 3.8-7.89c1.29-2.57 2.91-5.72 3.6-7.01 0.7-1.28 2.05-3.71 3.01-5.39s2.57-4.42 3.59-6.1 2.88-4.64 4.13-6.58c1.26-1.94 3.44-5.17 4.85-7.18 1.41-2.02 3.66-5.12 4.99-6.89 1.34-1.78 3.2-4.21 4.14-5.39 0.94-1.19 2.85-3.53 4.25-5.21s3.66-4.31 5.02-5.84c1.35-1.53 4.26-4.67 6.44-6.97 2.19-2.31 5.88-5.99 8.2-8.19s4.99-4.68 5.93-5.51c0.94-0.84 2.63-2.33 3.77-3.31 1.14-0.99 3.2-2.73 4.58-3.87s3.28-2.68 4.22-3.42 3.16-2.43 4.94-3.77c1.77-1.33 4.2-3.11 5.39-3.95 1.18-0.84 3.04-2.14 4.13-2.89 1.08-0.74 3.39-2.27 5.11-3.38 1.73-1.12 4.44-2.81 6.03-3.77 1.58-0.96 4.29-2.55 6.01-3.54 1.73-0.99 4.23-2.39 5.56-3.11 1.34-0.71 4.57-2.37 7.19-3.68s6.13-3.01 7.81-3.77 4.18-1.87 5.57-2.45c1.38-0.59 4.09-1.7 6.01-2.48 1.93-0.77 5.28-2.05 7.46-2.84 2.17-0.79 5.47-1.93 7.32-2.53 1.86-0.6 4.86-1.54 6.67-2.08s4.62-1.35 6.23-1.78c1.62-0.44 4.44-1.16 6.27-1.61 1.82-0.44 4.67-1.1 6.32-1.45 1.66-0.36 4.29-0.89 5.84-1.19 1.56-0.3 4.49-0.82 6.51-1.16 2.03-0.34 5.18-0.82 7.01-1.06 1.82-0.25 4.41-0.58 5.74-0.72 1.34-0.15 3.68-0.39 5.21-0.54s4.56-0.4 6.74-0.55c2.17-0.15 6.96-0.36 10.64-0.47 5.04-0.16 8.34-0.16 13.38 0 3.68 0.11 7.94 0.28 9.47 0.38s4.2 0.31 5.93 0.46 4.96 0.47 7.18 0.72 5.41 0.65 7.09 0.9c1.68 0.24 4.75 0.73 6.83 1.08 2.07 0.35 5.95 1.08 8.62 1.63 2.67 0.54 7.51 1.66 10.77 2.48s7.71 2.02 9.88 2.67 5.53 1.7 7.45 2.33c1.93 0.64 5.12 1.74 7.1 2.46 1.97 0.71 5.4 2.02 7.63 2.91 2.22 0.89 5.58 2.28 7.45 3.1 1.88 0.82 5.15 2.31 7.28 3.32 2.12 1 5.44 2.63 7.36 3.63 1.93 1 5.02 2.66 6.89 3.69 1.86 1.03 4.89 2.77 6.73 3.86 1.84 1.1 4.68 2.84 6.31 3.87s4.58 2.97 6.56 4.31 5.13 3.55 7 4.91c1.88 1.37 4.64 3.44 6.14 4.6 1.49 1.16 3.92 3.1 5.4 4.31 1.48 1.2 3.65 3.02 4.82 4.03 1.18 1.01 3.31 2.89 4.75 4.18 1.43 1.29 3.37 3.07 4.31 3.95 0.94 0.89 0.21 0.09-1.62-1.76-1.83-1.86-4.74-4.69-6.47-6.3-1.72-1.61-4.19-3.86-5.48-4.99s-3.78-3.24-5.52-4.7c-1.75-1.45-4.66-3.79-6.47-5.2s-4.78-3.65-6.6-4.97-5.01-3.55-7.09-4.95c-2.07-1.4-5.1-3.39-6.73-4.42s-4.35-2.7-6.05-3.71c-1.7-1-4.69-2.72-6.65-3.81-1.95-1.09-6.34-3.37-9.75-5.07-3.41-1.71-7.81-3.82-9.79-4.69-1.97-0.87-5.22-2.26-7.21-3.08s-5.39-2.15-7.54-2.96c-2.16-0.81-6.1-2.19-8.77-3.08s-6.95-2.22-9.52-2.96-6.93-1.9-9.7-2.59c-2.76-0.68-7.17-1.68-9.79-2.22-2.61-0.53-6.45-1.25-8.53-1.6-2.07-0.35-4.9-0.8-6.28-1s-3.85-0.53-5.48-0.72c-1.63-0.2-4.62-0.52-6.65-0.72-2.02-0.2-5.49-0.48-7.72-0.63-2.22-0.15-6.66-0.36-9.87-0.45-3.21-0.1-6.89-0.17-8.17-0.15zm13.73 13.64c-2.51 0.02-6.27 0.09-8.35 0.17-2.07 0.07-5.18 0.23-6.91 0.34s-4.92 0.36-7.09 0.55c-2.16 0.2-5.32 0.52-7 0.72s-4.23 0.52-5.67 0.72c-1.43 0.2-4.3 0.65-6.37 0.99-2.08 0.35-5.43 0.96-7.45 1.35-2.03 0.4-5.59 1.17-7.93 1.7-2.33 0.54-6.17 1.5-8.53 2.13-2.36 0.62-5.9 1.63-7.88 2.23s-5.21 1.62-7.18 2.28c-1.98 0.66-5.29 1.83-7.36 2.59-2.08 0.77-5.23 1.99-7.01 2.7-1.78 0.72-4.79 1.98-6.7 2.81-1.9 0.83-5.33 2.4-7.61 3.48s-6.05 2.96-8.38 4.19c-2.34 1.23-5.3 2.82-6.58 3.54-1.29 0.71-3.83 2.19-5.66 3.28s-4.41 2.66-5.75 3.5c-1.33 0.84-4.08 2.64-6.1 4-2.03 1.35-4.9 3.33-6.38 4.39s-4.19 3.06-6.01 4.45c-1.83 1.39-4.75 3.67-6.48 5.09-1.74 1.41-4.53 3.75-6.2 5.19-1.67 1.45-4.37 3.86-6 5.35s-5.11 4.86-7.72 7.48c-2.62 2.62-6.04 6.16-7.59 7.86-1.55 1.71-4.08 4.57-5.62 6.36s-3.87 4.6-5.18 6.24c-1.32 1.64-3.52 4.47-4.9 6.3s-3.4 4.57-4.49 6.11c-1.08 1.53-3.02 4.36-4.31 6.28-1.28 1.93-3.18 4.88-4.22 6.56s-2.75 4.51-3.79 6.28c-1.04 1.78-2.75 4.81-3.81 6.74-1.05 1.92-3.07 5.84-4.49 8.71-1.41 2.86-3.23 6.68-4.02 8.47-0.8 1.8-2.09 4.8-2.87 6.66-0.79 1.86-2.11 5.2-2.96 7.42-0.84 2.21-2.19 5.97-2.99 8.34s-1.98 6.01-2.61 8.09-1.59 5.42-2.14 7.42c-0.54 2.01-1.39 5.36-1.88 7.45-0.5 2.09-1.19 5.17-1.54 6.85-0.36 1.68-0.96 4.79-1.35 6.91-0.38 2.13-0.98 5.8-1.33 8.17s-0.83 6.09-1.08 8.27c-0.25 2.17-0.57 5.44-0.73 7.27-0.15 1.83-0.36 4.53-0.45 6.01-0.1 1.49-0.27 5.72-0.39 9.4-0.15 5.06-0.15 8.35 0 13.36 0.12 3.66 0.33 8.45 0.48 10.63s0.43 5.63 0.63 7.65c0.2 2.03 0.6 5.58 0.9 7.9 0.29 2.32 0.86 6.18 1.25 8.56 0.39 2.39 1 5.82 1.35 7.63 0.36 1.82 0.97 4.75 1.36 6.53s1.17 5.01 1.72 7.18c0.55 2.18 1.51 5.77 2.15 8 0.64 2.22 2.08 6.78 3.2 10.14s2.78 8.04 3.69 10.41c0.91 2.36 2.48 6.24 3.49 8.62 1.01 2.37 2.52 5.78 3.34 7.55 0.83 1.78 2.53 5.27 3.79 7.76 1.26 2.5 3.32 6.38 4.57 8.63s3.23 5.67 4.39 7.6c1.17 1.94 3.1 5.05 4.31 6.92 1.2 1.87 3.08 4.69 4.17 6.27s2.96 4.2 4.14 5.83c1.19 1.63 3.23 4.35 4.53 6.03 1.31 1.68 3.5 4.43 4.88 6.1 1.38 1.68 3.68 4.38 5.12 6.01 1.43 1.63 3.33 3.74 4.2 4.68 0.88 0.95 2.45 2.49 3.48 3.43 1.04 0.95 3.14 2.79 4.67 4.1 1.54 1.32 4.36 3.66 6.29 5.2 1.93 1.55 4.95 3.91 6.73 5.24 1.78 1.34 4.77 3.51 6.65 4.83 1.87 1.32 4.7 3.24 6.28 4.28s4.33 2.78 6.11 3.89c1.78 1.1 4.57 2.77 6.2 3.72 1.63 0.94 4.25 2.43 5.83 3.29 1.58 0.87 4.81 2.56 7.18 3.75 2.38 1.2 5.77 2.86 7.55 3.68 1.78 0.83 5.17 2.33 7.54 3.34s6.21 2.57 8.53 3.46 6.28 2.32 8.8 3.18c2.52 0.85 6 1.99 7.72 2.51 1.73 0.53 4.18 1.26 5.43 1.62 1.26 0.35 3.85 1.05 5.75 1.53 1.9 0.49 5.04 1.25 6.96 1.69 1.93 0.44 5.16 1.13 7.19 1.52 2.02 0.4 5.37 1.01 7.45 1.36 2.07 0.34 4.94 0.79 6.37 0.99 1.44 0.2 3.94 0.52 5.57 0.72 1.63 0.19 4.26 0.47 5.84 0.62s4.57 0.4 6.64 0.55c2.08 0.14 6.24 0.36 9.25 0.47 3.3 0.13 8.13 0.17 12.12 0.11 3.66-0.07 8.18-0.2 10.06-0.3 1.88-0.11 5.39-0.36 7.81-0.56s6.14-0.56 8.26-0.8c2.13-0.25 5.28-0.65 7.01-0.9s4.6-0.7 6.37-0.99c1.78-0.3 4.89-0.87 6.92-1.27 2.02-0.4 5.26-1.08 7.18-1.52 1.93-0.44 5.08-1.2 7-1.7 1.93-0.5 5.32-1.43 7.54-2.07 2.21-0.65 5.77-1.74 7.9-2.44 2.13-0.69 5.33-1.79 7.1-2.43 1.78-0.63 5.38-2.01 8-3.05 2.61-1.03 6.69-2.74 9.06-3.79 2.38-1.05 6.78-3.13 9.79-4.63 3.02-1.49 7.18-3.65 9.25-4.78 2.08-1.14 4.98-2.78 6.47-3.64 1.48-0.87 4.18-2.51 6.01-3.65s4.9-3.12 6.83-4.41c1.92-1.28 4.92-3.34 6.64-4.58 1.73-1.23 4.32-3.13 5.75-4.22s4-3.1 5.69-4.46c1.7-1.37 4.25-3.46 5.66-4.66 1.41-1.19 4.06-3.51 5.89-5.16 1.83-1.64 5.33-4.97 7.79-7.39 2.45-2.42 5.86-5.89 7.56-7.72 1.71-1.83 4.06-4.41 5.23-5.75 1.18-1.33 2.95-3.39 3.95-4.58 0.99-1.18 2.77-3.36 3.96-4.85 1.19-1.48 3.37-4.31 4.85-6.28 1.48-1.98 3.54-4.8 4.58-6.29 1.04-1.48 2.7-3.9 3.69-5.38 0.99-1.49 2.69-4.11 3.77-5.84 1.09-1.73 2.95-4.8 4.13-6.83 1.18-2.02 2.93-5.1 3.88-6.83 0.94-1.73 2.96-5.65 4.48-8.71s3.62-7.5 4.66-9.87c1.05-2.37 2.43-5.6 3.07-7.18s1.78-4.5 2.53-6.49c0.75-2 2.06-5.68 2.9-8.18 0.85-2.5 2.07-6.32 2.71-8.5 0.64-2.17 1.56-5.4 2.04-7.18 0.47-1.78 1.27-4.97 1.77-7.09 0.5-2.13 1.2-5.28 1.56-7.01 0.35-1.73 0.92-4.68 1.25-6.55 0.34-1.88 0.82-4.75 1.07-6.38s0.66-4.54 0.91-6.46c0.24-1.93 0.61-5.12 0.8-7.1 0.2-1.97 0.48-5.29 0.63-7.36 0.15-2.08 0.36-6.12 0.48-8.98 0.12-3.2 0.17-8.09 0.1-12.66-0.06-4.1-0.2-8.87-0.3-10.6s-0.35-5.08-0.55-7.45-0.52-5.77-0.72-7.54c-0.2-1.78-0.57-4.69-0.82-6.47-0.24-1.78-0.73-4.93-1.07-7-0.35-2.08-0.99-5.55-1.42-7.73-0.43-2.17-1.16-5.56-1.61-7.54-0.46-1.97-1.31-5.43-1.91-7.69-0.59-2.26-1.56-5.73-2.16-7.72-0.59-1.99-1.71-5.52-2.48-7.84-0.77-2.33-2.2-6.33-3.16-8.89-0.96-2.57-2.51-6.49-3.45-8.71-0.93-2.23-2.39-5.58-3.25-7.46-0.85-1.87-2.61-5.55-3.92-8.17s-3.22-6.29-4.25-8.17c-1.02-1.88-2.58-4.62-3.44-6.11-0.87-1.48-2.4-4.02-3.4-5.65-0.99-1.63-2.99-4.75-4.43-6.92s-3.53-5.24-4.66-6.82c-1.12-1.58-2.99-4.14-4.15-5.68-1.16-1.55-3.1-4.05-4.31-5.57s-3.01-3.73-4-4.91c-0.99-1.19-2.89-3.41-4.23-4.94-1.33-1.54-3.13-3.49-4-4.35s-2.89-2.73-4.5-4.16c-1.6-1.43-4.04-3.54-5.42-4.71-1.39-1.16-3.85-3.17-5.48-4.47s-4.42-3.45-6.2-4.79-4.33-3.2-5.66-4.14c-1.34-0.94-4.01-2.76-5.93-4.04s-4.79-3.14-6.38-4.13c-1.58-0.99-4.33-2.65-6.1-3.69s-4.8-2.75-6.73-3.81c-1.92-1.05-5.72-3.03-8.44-4.38-2.71-1.36-6.43-3.14-8.26-3.97s-4.9-2.17-6.82-2.98c-1.93-0.81-5.2-2.12-7.28-2.92-2.07-0.79-5.54-2.06-7.71-2.81-2.17-0.76-5.75-1.94-7.97-2.62-2.21-0.69-5.81-1.75-8-2.34-2.19-0.6-5.45-1.45-7.25-1.89-1.81-0.44-4.96-1.16-7.01-1.6s-5.26-1.07-7.14-1.42c-1.87-0.34-4.98-0.86-6.91-1.16-1.92-0.3-5.12-0.75-7.09-1-1.98-0.25-5.25-0.61-7.28-0.81-2.02-0.2-5.46-0.49-7.63-0.63-2.17-0.15-6.17-0.35-8.89-0.45-2.71-0.1-7-0.17-9.52-0.16zm-174.53 149.66c2.34 0 4.27 1.29 5.58 3.38l0.15 0.15 29.86 59.95c0.57 1.03 1.24 1.47 2.3 1.48 1.24-0.1 1.87-0.46 2.31-1.43l0.01-0.01 29.04-59.74c0.01-0.03 0.01-0.05 0.02-0.08 0.01 0 0.02-0.01 0.02-0.01v-0.15l0.12-0.19c1.32-2.04 3.29-3.22 5.73-3.23 1.75-0.11 3.32 0.54 4.64 1.75l0.01 0.01 0.02 0.01c1.25 1.26 1.88 2.91 1.88 4.65v75.05c0 1.87-0.78 3.43-2 4.64-1.23 1.24-2.79 1.89-4.53 1.89-1.83 0-3.41-0.65-4.65-1.89-1.23-1.23-1.89-2.81-1.89-4.64v-40.69c0-0.76-0.17-1.28-0.48-1.66-0.32-0.37-0.79-0.65-1.55-0.8h-0.03l-0.02-0.01c-0.71-0.19-1.26-0.15-1.7 0.06-0.45 0.2-0.84 0.59-1.18 1.3v0.01l-20.38 41.54c-0.05 0.13-0.11 0.25-0.17 0.32-0.07 0.1-0.13 0.15-0.18 0.21-1.32 1.88-3.15 2.93-5.35 2.93-2.67 0-4.81-1.35-6.02-3.88l-20.15-40.3c-0.39-0.68-0.81-1.11-1.26-1.33s-0.95-0.27-1.64-0.08h-0.01c-0.78 0.2-1.24 0.48-1.53 0.84-0.28 0.36-0.44 0.85-0.44 1.63v39.91c0 1.83-0.65 3.41-1.89 4.64-1.25 1.26-2.91 1.89-4.64 1.89-1.84 0-3.41-0.65-4.65-1.89-1.23-1.23-1.89-2.81-1.89-4.64v-75.05c0-1.74 0.64-3.39 1.89-4.65 1.24-1.23 2.81-1.89 4.65-1.89zm233.14 25.39l0.17 0.08s0.03 0.01 0.06 0.03c0.03 0.01 0 0-0.06 0 4.77 0.11 9.11 1.25 13.08 3.3h0.01l0.01 0.01c4.13 2.29 7.45 5.73 9.84 10.06v0.01h0.01c2.28 4.34 3.52 9.57 3.52 15.66v27.27c0 1.83-0.65 3.41-1.89 4.65-1.25 1.25-2.83 1.77-4.53 1.77-1.8 0-3.39-0.52-4.65-1.77-1.25-1.26-1.77-2.85-1.77-4.65v-27.27c0-5.73-1.61-10.04-4.65-12.97-3.06-2.96-7.04-4.44-12.21-4.44-2.99 0-5.75 0.64-8.19 1.8-2.45 1.28-4.33 2.86-5.69 4.84-1.36 2.1-1.98 4.25-1.98 6.78v31.26c0 1.83-0.64 3.39-1.75 4.62l-0.01 0.01-0.02 0.02c-1.25 1.25-2.84 1.77-4.64 1.77s-3.4-0.52-4.65-1.77c-1.25-1.26-1.77-2.85-1.77-4.65v-49.44-0.45-0.44c0-1.6 0.54-3.08 1.77-4.31 1.12-1.12 2.58-1.78 4.32-1.78h25.67zm76.68 0.11c5.78 0 11.03 1.48 15.79 4.21 4.78 2.73 8.54 6.6 11.26 11.36 2.73 4.78 4.2 10.23 4.2 16.02v24.72 0.77c0 1.74-0.65 3.2-1.77 4.32l-0.02 0.01-0.01 0.02c-1.22 1.09-2.65 1.75-4.29 1.75h-26.49-0.89c-5.45 0-10.37-1.38-14.92-4.22-4.44-2.73-7.98-6.5-10.48-11.27-2.5-4.78-3.75-10.23-3.75-16.1 0-5.88 1.36-11.24 4.09-16.02 2.73-4.76 6.49-8.63 11.27-11.36 4.76-2.73 10.12-4.21 16.01-4.21zm-165.35 2.12v0.01c0.01 0 0.44 0.1 0.96 0.21 0.52 0.13 2.1 0.5 3.51 0.84 1.41 0.33 3.39 0.81 4.4 1.05 1.02 0.24 2.34 0.56 2.95 0.71 0.6 0.14 1.23 0.29 1.39 0.33l0.29 0.08-0.01 0.1c0 0.06-0.03 0.24-0.06 0.4-0.03 0.15-0.12 0.61-0.21 1.01-0.09 0.39-0.22 0.97-0.3 1.27-0.07 0.31-0.19 0.74-0.25 0.97-0.07 0.22-0.18 0.58-0.25 0.79s-0.15 0.44-0.18 0.5l-0.06 0.13-0.08-0.01c-0.04-0.01-0.26-0.06-0.47-0.11-0.22-0.06-0.41-0.1-0.44-0.1-0.02 0-0.07 0.02-0.12 0.04-0.04 0.03-0.13 0.09-0.18 0.15-0.06 0.06-0.16 0.18-0.22 0.27-0.06 0.1-0.16 0.26-0.22 0.38-0.06 0.11-0.17 0.34-0.24 0.51s-0.19 0.49-0.27 0.72c-0.07 0.22-0.18 0.59-0.24 0.81s-0.12 0.49-0.13 0.59c-0.02 0.11-0.02 0.31-0.02 0.5 0.01 0.18 0.04 0.44 0.06 0.58 0.03 0.15 0.08 0.38 0.11 0.52 0.04 0.14 0.12 0.41 0.18 0.6s0.18 0.49 0.26 0.68 0.22 0.52 0.33 0.73c0.1 0.21 0.27 0.54 0.37 0.73 0.11 0.19 0.29 0.49 0.4 0.67 0.11 0.19 0.33 0.53 0.49 0.76 0.15 0.23 0.38 0.56 0.5 0.72s0.33 0.43 0.47 0.6c0.13 0.17 0.35 0.43 0.48 0.58s0.41 0.46 0.63 0.7c0.22 0.23 0.5 0.53 0.62 0.67 0.12 0.13 0.34 0.39 0.48 0.56 0.15 0.17 0.41 0.48 0.58 0.7 0.17 0.21 0.44 0.56 0.6 0.77s0.42 0.57 0.59 0.8c0.16 0.24 0.45 0.65 0.64 0.93s0.43 0.65 0.53 0.81c0.1 0.17 0.3 0.48 0.43 0.7 0.13 0.23 0.35 0.6 0.49 0.84 0.13 0.24 0.36 0.66 0.5 0.93s0.36 0.71 0.49 0.97c0.12 0.26 0.31 0.67 0.41 0.9s0.27 0.64 0.38 0.92 0.26 0.68 0.34 0.9c0.07 0.22 0.19 0.56 0.26 0.77 0.06 0.21 0.16 0.53 0.21 0.72s0.14 0.52 0.19 0.74c0.06 0.22 0.15 0.63 0.21 0.92s0.13 0.69 0.16 0.89 0.08 0.57 0.11 0.82c0.02 0.26 0.06 0.61 0.07 0.8 0.01 0.18 0.03 0.57 0.04 0.87 0 0.32 0 0.75-0.02 1.04-0.01 0.27-0.03 0.65-0.05 0.85-0.02 0.19-0.06 0.52-0.09 0.73-0.03 0.2-0.09 0.57-0.14 0.81-0.04 0.24-0.13 0.63-0.19 0.87-0.06 0.23-0.14 0.55-0.18 0.7-0.04 0.16-0.14 0.48-0.22 0.72-0.07 0.24-0.18 0.57-0.24 0.74-0.06 0.16-0.16 0.46-0.24 0.65-0.07 0.2-0.23 0.59-0.36 0.88-0.12 0.29-0.35 0.79-0.51 1.11-0.16 0.33-0.38 0.76-0.49 0.97s-0.33 0.57-0.47 0.82c-0.15 0.24-0.4 0.64-0.56 0.89-0.16 0.24-0.39 0.57-0.5 0.72s-0.27 0.37-0.36 0.49-0.29 0.38-0.45 0.58c-0.17 0.2-0.39 0.48-0.51 0.61-0.12 0.14-0.37 0.42-0.57 0.63-0.19 0.22-0.54 0.57-0.77 0.8-0.23 0.22-0.52 0.51-0.66 0.63-0.13 0.13-0.38 0.35-0.56 0.49-0.17 0.15-0.45 0.38-0.62 0.52-0.17 0.13-0.46 0.36-0.65 0.5s-0.45 0.34-0.59 0.43c-0.13 0.09-0.37 0.26-0.53 0.36-0.16 0.11-0.44 0.29-0.63 0.4-0.18 0.11-0.49 0.3-0.68 0.41s-0.55 0.3-0.78 0.43c-0.24 0.12-0.61 0.31-0.84 0.42-0.22 0.1-0.53 0.24-0.68 0.31-0.14 0.06-0.42 0.18-0.61 0.26-0.18 0.07-0.45 0.18-0.59 0.23s-0.38 0.14-0.54 0.19c-0.15 0.06-0.42 0.14-0.59 0.2-0.17 0.05-0.45 0.14-0.64 0.19-0.18 0.06-0.55 0.16-0.82 0.23-0.28 0.06-0.67 0.16-0.89 0.2-0.22 0.05-0.38 0.09-0.36 0.09 0.03 0 2.41 0.01 5.3 0.03 2.9 0.01 6.1 0.03 7.12 0.04 1.01 0.01 2.51 0.03 3.31 0.04 0.81 0.02 2.25 0.03 3.2 0.05 0.94 0.01 2.2 0.03 2.79 0.04s1.8 0.03 2.69 0.05 2.36 0.05 3.27 0.07c0.9 0.01 2.34 0.05 3.2 0.07 0.85 0.03 1.55 0.05 1.55 0.05 0.01 0-0.44 0.02-0.99 0.03-0.55 0.02-1.38 0.04-1.84 0.05s-2.52 0.06-4.59 0.1-4.42 0.08-5.24 0.09c-0.81 0.01-2.19 0.03-3.07 0.05-0.88 0.01-2.28 0.03-3.12 0.04-0.83 0.01-3.13 0.03-5.1 0.04-1.96 0.01-6.03 0.03-9.02 0.04-3.8 0.02-7.02 0.02-10.61 0.01-2.84-0.02-6.12-0.03-7.28-0.04s-3.34-0.02-4.84-0.04-3.54-0.04-4.53-0.05c-0.99-0.02-2.31-0.03-2.94-0.04-0.63 0-3.31-0.05-5.96-0.1-2.64-0.06-5.33-0.11-5.96-0.13-0.64-0.02-1.26-0.03-1.38-0.03s-0.22-0.01-0.21-0.01c0-0.01 0.72-0.03 1.59-0.06 0.87-0.02 3.63-0.08 6.12-0.13 2.5-0.04 7.03-0.11 10.07-0.15 3.61-0.04 7.34-0.07 10.75-0.08 2.88-0.01 5.5-0.03 5.84-0.04l0.61-0.01-0.14-0.03c-0.08-0.02-0.33-0.07-0.57-0.13-0.23-0.05-0.61-0.14-0.82-0.2-0.22-0.06-0.56-0.15-0.76-0.21s-0.55-0.18-0.78-0.25c-0.23-0.08-0.6-0.21-0.83-0.3-0.22-0.09-0.49-0.19-0.6-0.23-0.1-0.05-0.37-0.16-0.59-0.26-0.22-0.09-0.63-0.29-0.92-0.43-0.29-0.15-0.65-0.33-0.8-0.41-0.14-0.08-0.38-0.21-0.54-0.3-0.15-0.09-0.42-0.25-0.61-0.37-0.18-0.11-0.53-0.34-0.78-0.5-0.25-0.17-0.61-0.42-0.81-0.57-0.19-0.14-0.52-0.39-0.72-0.56-0.21-0.16-0.53-0.42-0.71-0.58-0.18-0.15-0.49-0.43-0.69-0.62-0.2-0.18-0.56-0.54-0.81-0.78-0.24-0.25-0.57-0.59-0.72-0.77-0.16-0.18-0.41-0.47-0.56-0.65-0.15-0.17-0.38-0.46-0.52-0.64-0.14-0.17-0.36-0.47-0.49-0.65s-0.35-0.5-0.49-0.71c-0.14-0.2-0.35-0.53-0.47-0.71-0.11-0.19-0.31-0.52-0.42-0.72-0.12-0.21-0.31-0.55-0.42-0.75-0.11-0.21-0.28-0.55-0.39-0.77-0.1-0.21-0.26-0.55-0.34-0.75-0.09-0.2-0.26-0.59-0.37-0.87s-0.26-0.69-0.34-0.91-0.2-0.59-0.27-0.82-0.18-0.6-0.24-0.82-0.15-0.58-0.2-0.8-0.13-0.59-0.18-0.83c-0.05-0.23-0.12-0.6-0.15-0.82-0.04-0.22-0.09-0.58-0.12-0.81s-0.07-0.63-0.1-0.89c-0.02-0.26-0.05-0.69-0.06-0.94-0.02-0.3-0.02-0.85-0.02-1.49 0.01-0.63 0.03-1.18 0.05-1.44 0.02-0.23 0.04-0.51 0.06-0.63 0.01-0.12 0.04-0.38 0.06-0.57s0.07-0.51 0.1-0.69c0.03-0.19 0.08-0.53 0.13-0.75 0.04-0.23 0.12-0.65 0.19-0.93 0.06-0.29 0.17-0.7 0.23-0.92 0.07-0.22 0.17-0.57 0.24-0.78 0.07-0.2 0.19-0.53 0.27-0.73 0.08-0.19 0.2-0.48 0.27-0.64s0.22-0.48 0.34-0.71c0.11-0.22 0.27-0.53 0.35-0.68 0.09-0.15 0.23-0.39 0.32-0.54 0.08-0.14 0.28-0.46 0.44-0.69 0.16-0.24 0.41-0.6 0.57-0.82 0.16-0.21 0.39-0.51 0.52-0.67s0.33-0.4 0.44-0.53 0.34-0.38 0.51-0.56c0.16-0.19 0.53-0.56 0.81-0.84s0.65-0.63 0.82-0.78c0.17-0.16 0.41-0.37 0.54-0.47 0.12-0.11 0.33-0.28 0.46-0.39s0.35-0.28 0.48-0.39c0.14-0.1 0.44-0.33 0.67-0.5s0.59-0.44 0.81-0.59 0.56-0.38 0.76-0.51 0.58-0.37 0.84-0.53c0.25-0.16 0.66-0.4 0.89-0.53 0.24-0.14 0.62-0.35 0.86-0.48s0.71-0.37 1.06-0.55c0.35-0.17 0.83-0.41 1.08-0.52 0.25-0.12 0.65-0.29 0.88-0.39 0.24-0.1 0.58-0.25 0.77-0.32s0.51-0.19 0.72-0.27c0.21-0.07 0.53-0.19 0.72-0.26 0.18-0.08 0.5-0.21 0.69-0.29 0.2-0.09 0.53-0.24 0.75-0.35 0.21-0.1 0.57-0.28 0.79-0.41 0.22-0.12 0.54-0.3 0.72-0.41 0.18-0.1 0.5-0.31 0.72-0.45 0.22-0.15 0.55-0.38 0.74-0.52s0.47-0.36 0.62-0.49 0.46-0.41 0.68-0.63c0.21-0.22 0.47-0.5 0.57-0.62s0.24-0.32 0.32-0.43c0.07-0.11 0.17-0.29 0.22-0.4 0.06-0.1 0.12-0.26 0.15-0.35 0.04-0.09 0.1-0.33 0.14-0.54 0.04-0.2 0.1-0.51 0.13-0.69 0.02-0.18 0.06-0.48 0.08-0.67 0.03-0.27 0.04-0.48 0.03-0.84-0.01-0.4-0.02-0.51-0.06-0.65-0.02-0.09-0.06-0.2-0.08-0.24-0.03-0.05-0.06-0.1-0.09-0.12-0.03-0.03-0.22-0.09-0.53-0.17l-0.49-0.12v-0.08c0.01-0.05 0.04-0.25 0.09-0.45 0.04-0.2 0.16-0.74 0.27-1.2 0.1-0.46 0.25-1.07 0.32-1.35s0.19-0.74 0.26-1.01c0.08-0.27 0.17-0.59 0.21-0.7 0.03-0.12 0.08-0.26 0.09-0.31 0.02-0.05 0.04-0.09 0.04-0.09zm165.35 9.4c-3.63 0-6.81 0.95-9.7 2.66-2.86 1.7-5.09 4.13-6.81 7.14-1.7 3.09-2.45 6.49-2.45 10.27 0 3.89 0.75 7.29 2.45 10.26 1.71 3.01 3.95 5.45 6.81 7.15 2.88 1.7 6.05 2.55 9.7 2.55 3.53 0 6.71-0.85 9.58-2.55s5.1-4.14 6.82-7.15c1.6-2.98 2.45-6.39 2.45-10.26 0-3.76-0.86-7.17-2.46-10.27-1.72-3.01-3.95-5.44-6.81-7.14-2.88-1.71-6.06-2.66-9.58-2.66zm-186.84 22.67c-0.16 0-0.37 0.01-0.48 0.03s-0.28 0.05-0.38 0.08-0.27 0.09-0.38 0.14c-0.1 0.04-0.28 0.15-0.4 0.22-0.11 0.08-0.28 0.21-0.36 0.29l-0.15 0.15-0.07 0.31c-0.04 0.17-0.1 0.47-0.14 0.67s-0.1 0.52-0.13 0.72c-0.03 0.19-0.07 0.47-0.09 0.62s-0.04 0.44-0.06 0.66-0.04 0.68-0.05 1.03c-0.01 0.38 0 0.83 0.01 1.12 0.02 0.27 0.04 0.64 0.06 0.82 0.02 0.19 0.05 0.46 0.06 0.6 0.02 0.14 0.06 0.41 0.09 0.59s0.08 0.48 0.12 0.66c0.04 0.19 0.11 0.53 0.17 0.76 0.05 0.24 0.15 0.59 0.2 0.77 0.06 0.19 0.15 0.49 0.21 0.68 0.06 0.18 0.17 0.5 0.25 0.72 0.08 0.21 0.21 0.53 0.29 0.71 0.07 0.19 0.19 0.46 0.26 0.61 0.07 0.16 0.21 0.45 0.32 0.65 0.1 0.21 0.26 0.52 0.36 0.69 0.09 0.17 0.28 0.49 0.41 0.71s0.38 0.61 0.56 0.88c0.17 0.26 0.45 0.65 0.61 0.86 0.15 0.22 0.38 0.51 0.5 0.66s0.32 0.4 0.46 0.55c0.13 0.16 0.34 0.39 0.45 0.52 0.11 0.12 0.42 0.44 0.68 0.7s0.62 0.62 0.81 0.8c0.19 0.17 0.48 0.43 0.64 0.57 0.17 0.14 0.42 0.35 0.57 0.47s0.42 0.33 0.61 0.47 0.46 0.34 0.61 0.45l0.6 0.4c0.18 0.12 0.43 0.29 0.56 0.36 0.12 0.08 0.37 0.23 0.54 0.33 0.18 0.1 0.49 0.28 0.7 0.39s0.52 0.28 0.71 0.37c0.18 0.09 0.5 0.25 0.71 0.34 0.22 0.1 0.56 0.25 0.77 0.34 0.21 0.08 0.52 0.21 0.7 0.28 0.17 0.06 0.47 0.17 0.67 0.24s0.53 0.18 0.74 0.24c0.21 0.07 0.54 0.16 0.73 0.22 0.2 0.05 0.53 0.14 0.75 0.19s0.59 0.14 0.82 0.18c0.23 0.05 0.55 0.11 0.72 0.14 0.18 0.03 0.48 0.08 0.68 0.11s0.58 0.08 0.85 0.11c0.26 0.03 0.67 0.07 0.92 0.08 0.24 0.02 0.75 0.05 1.14 0.06 0.5 0.01 0.9 0.01 1.37 0 0.37-0.01 0.86-0.04 1.11-0.06 0.24-0.01 0.61-0.05 0.83-0.07 0.22-0.03 0.57-0.07 0.77-0.1 0.21-0.03 0.54-0.08 0.75-0.12 0.2-0.03 0.53-0.09 0.74-0.14 0.2-0.04 0.56-0.12 0.8-0.18 0.24-0.05 0.62-0.16 0.86-0.22 0.23-0.07 0.61-0.19 0.85-0.26 0.23-0.08 0.63-0.22 0.88-0.31 0.24-0.09 0.6-0.23 0.79-0.31s0.51-0.22 0.72-0.31c0.2-0.1 0.5-0.24 0.67-0.32 0.16-0.09 0.44-0.24 0.63-0.34 0.18-0.1 0.45-0.25 0.59-0.33 0.14-0.09 0.42-0.25 0.61-0.38 0.2-0.12 0.48-0.31 0.63-0.41 0.16-0.11 0.39-0.28 0.53-0.38 0.13-0.1 0.38-0.29 0.54-0.42 0.17-0.13 0.45-0.36 0.63-0.52 0.17-0.15 0.46-0.41 0.63-0.57s0.44-0.44 0.61-0.62 0.43-0.46 0.57-0.62c0.15-0.17 0.33-0.39 0.41-0.48 0.08-0.1 0.26-0.34 0.41-0.54 0.15-0.19 0.41-0.56 0.58-0.82 0.17-0.25 0.39-0.6 0.48-0.77 0.1-0.17 0.27-0.46 0.37-0.65s0.26-0.51 0.36-0.72c0.09-0.2 0.23-0.52 0.31-0.7 0.07-0.18 0.19-0.46 0.25-0.62s0.15-0.44 0.21-0.61 0.14-0.45 0.19-0.61 0.13-0.48 0.18-0.69c0.08-0.3 0.1-0.42 0.09-0.48-0.01-0.05-0.04-0.16-0.08-0.24-0.03-0.09-0.09-0.22-0.14-0.28-0.04-0.07-0.11-0.17-0.15-0.22-0.05-0.05-0.15-0.15-0.23-0.21-0.08-0.07-0.24-0.16-0.34-0.21-0.11-0.05-0.29-0.12-0.41-0.15s-0.33-0.06-0.47-0.08c-0.17-0.01-0.34-0.01-0.51 0.01-0.15 0.01-0.36 0.04-0.48 0.06-0.11 0.02-0.29 0.07-0.39 0.1s-0.25 0.07-0.32 0.1c-0.08 0.03-0.21 0.08-0.28 0.11-0.08 0.03-0.23 0.1-0.35 0.16-0.11 0.06-0.3 0.13-0.41 0.17-0.11 0.03-0.65 0.2-1.21 0.38-0.56 0.17-1.22 0.37-1.47 0.44s-0.68 0.18-0.95 0.25c-0.28 0.07-0.69 0.17-0.92 0.21-0.23 0.05-0.58 0.11-0.77 0.14-0.18 0.03-0.51 0.08-0.72 0.1-0.22 0.02-0.6 0.05-0.87 0.07-0.34 0.01-0.6 0.01-0.95 0-0.26-0.02-0.62-0.05-0.81-0.07-0.18-0.02-0.46-0.07-0.62-0.1s-0.42-0.09-0.58-0.13-0.42-0.11-0.59-0.17c-0.16-0.05-0.41-0.14-0.55-0.2s-0.43-0.18-0.63-0.27c-0.21-0.09-0.47-0.22-0.57-0.28-0.11-0.06-0.29-0.15-0.41-0.2-0.12-0.04-0.3-0.1-0.42-0.13-0.11-0.03-0.29-0.07-0.39-0.09s-0.29-0.04-0.41-0.05c-0.13 0-0.3 0-0.37 0.01-0.08 0.01-0.39 0.01-0.69 0s-0.69-0.03-0.87-0.04c-0.17-0.01-0.5-0.05-0.73-0.08s-0.59-0.08-0.81-0.12c-0.21-0.04-0.58-0.13-0.82-0.18-0.23-0.06-0.57-0.16-0.75-0.22-0.19-0.05-0.47-0.15-0.64-0.21s-0.45-0.17-0.63-0.25c-0.18-0.07-0.48-0.2-0.66-0.29-0.18-0.08-0.49-0.24-0.69-0.35-0.21-0.1-0.47-0.25-0.6-0.32-0.12-0.07-0.36-0.21-0.53-0.32-0.17-0.1-0.42-0.27-0.57-0.36-0.14-0.1-0.39-0.27-0.54-0.38-0.16-0.11-0.81-0.59-1.44-1.06l-1.15-0.86-0.38-0.38c-0.21-0.22-0.53-0.51-0.7-0.65s-0.44-0.36-0.61-0.48c-0.16-0.13-0.45-0.34-0.64-0.47s-0.52-0.35-0.74-0.49-0.57-0.36-0.79-0.49-0.61-0.36-0.87-0.51c-0.26-0.14-0.67-0.37-0.92-0.51-0.25-0.13-0.8-0.43-1.23-0.66-0.43-0.22-0.98-0.51-1.22-0.64-0.23-0.13-0.5-0.27-0.6-0.31-0.09-0.04-0.26-0.09-0.37-0.13-0.11-0.03-0.3-0.07-0.41-0.08-0.12-0.02-0.35-0.04-0.51-0.03zm32.33 18.66c0.14 0.01 0.2 0.02 0.31 0.08 0.09 0.04 0.16 0.09 0.2 0.15 0.03 0.05 0.08 0.14 0.11 0.21 0.04 0.1 0.05 0.16 0.04 0.37 0 0.23 0 0.28-0.05 0.43-0.04 0.1-0.11 0.24-0.16 0.33-0.05 0.08-0.16 0.21-0.23 0.28-0.08 0.07-0.2 0.16-0.3 0.2-0.08 0.05-0.23 0.1-0.31 0.12-0.11 0.02-0.26 0.03-0.48 0.03-0.23 0-0.37-0.01-0.48-0.03-0.09-0.02-0.23-0.07-0.33-0.11-0.09-0.03-0.23-0.1-0.3-0.14-0.06-0.05-0.16-0.13-0.21-0.19-0.05-0.05-0.11-0.14-0.14-0.2-0.03-0.07-0.04-0.14-0.04-0.24 0-0.11 0.01-0.18 0.04-0.26 0.03-0.05 0.1-0.15 0.16-0.22 0.07-0.07 0.17-0.16 0.24-0.2 0.06-0.04 0.19-0.12 0.28-0.17 0.1-0.04 0.27-0.12 0.39-0.16 0.11-0.04 0.32-0.11 0.47-0.16 0.14-0.04 0.34-0.08 0.44-0.1s0.26-0.03 0.35-0.02zm-5.22 1.43c0.21 0 0.45 0.01 0.52 0.02 0.08 0.01 0.22 0.04 0.31 0.07s0.22 0.09 0.29 0.14c0.06 0.04 0.16 0.12 0.2 0.17 0.05 0.05 0.12 0.17 0.16 0.25 0.04 0.09 0.08 0.23 0.1 0.34 0.02 0.1 0.03 0.24 0.03 0.31 0 0.06-0.01 0.2-0.04 0.31-0.02 0.11-0.07 0.27-0.1 0.36-0.04 0.09-0.12 0.24-0.18 0.33s-0.19 0.25-0.29 0.35c-0.09 0.09-0.25 0.24-0.35 0.31s-0.28 0.19-0.4 0.25c-0.13 0.07-0.31 0.15-0.4 0.19-0.09 0.03-0.27 0.09-0.4 0.13-0.14 0.03-0.36 0.08-0.49 0.1-0.2 0.03-0.38 0.04-0.94 0.04-0.54 0-0.77-0.01-1.01-0.04-0.17-0.02-0.45-0.07-0.62-0.1-0.17-0.04-0.43-0.1-0.57-0.14s-0.36-0.12-0.49-0.18c-0.12-0.05-0.31-0.15-0.41-0.21-0.11-0.07-0.24-0.16-0.3-0.21s-0.16-0.16-0.21-0.24c-0.06-0.09-0.11-0.2-0.13-0.28-0.03-0.1-0.03-0.18-0.02-0.27 0.01-0.08 0.04-0.18 0.09-0.27 0.05-0.11 0.11-0.19 0.23-0.29 0.08-0.09 0.23-0.2 0.32-0.25 0.1-0.06 0.29-0.15 0.42-0.21s0.37-0.14 0.52-0.19 0.44-0.14 0.64-0.19 0.71-0.16 1.13-0.25 0.93-0.19 1.14-0.23c0.2-0.03 0.46-0.07 0.56-0.08 0.11-0.01 0.22-0.03 0.25-0.03 0.03-0.01 0.22-0.01 0.44-0.01zm-181.37 28.45c1.5 0 2.78 0.51 3.86 1.24l0.02 0.01 0.03 0.02c1.12 0.87 1.98 2.11 2.47 3.58l0.01 0.01 14.86 51.79c0.19 0.66 0.47 1.11 0.83 1.39 0.36 0.27 0.84 0.43 1.59 0.38h0.03 0.02c0.71 0 1.18-0.16 1.53-0.43 0.36-0.28 0.64-0.72 0.83-1.44l13.75-51c0.27-1.3 1.09-2.36 2.29-3.2h0.01l0.01-0.01c1.11-0.74 2.47-1.24 3.97-1.24 1.36 0 2.63 0.39 3.84 1.11l0.01 0.01 0.02 0.01c1.16 0.78 1.93 1.93 2.3 3.19l0.01 0.01 13.86 51.59 0.01 0.02c0.14 0.69 0.4 1.11 0.76 1.38 0.37 0.28 0.88 0.44 1.59 0.44h0.02 0.03c0.68 0.05 1.17-0.1 1.55-0.39 0.38-0.28 0.69-0.73 0.87-1.38l15.19-52.76c0.37-1.37 1.12-2.52 2.16-3.29l0.03-0.02 0.02-0.02c1.07-0.67 2.52-1 4.18-1 1.6 0 2.97 0.52 3.91 1.59l0.02 0.02 0.01 0.03c0.77 1.02 1.26 2.4 1.26 4 0 1.21-0.23 2.38-0.46 3.29l-0.01 0.02-22.28 73.85 0.03-0.22c0 0.31-0.11 0.47-0.19 0.58l-0.04 0.06c-0.58 1.44-1.31 2.55-2.36 3.48-1.14 1.01-2.48 1.41-3.94 1.41-1.55 0-2.9-0.4-4.03-1.39-1.24-0.89-1.99-2.14-2.46-3.44l-0.05-0.13v-0.05c-0.04-0.07-0.11-0.16-0.11-0.41l0.03 0.19-13.3-51.32c-0.2-0.72-0.49-1.2-0.86-1.5s-0.86-0.48-1.62-0.48c-0.69 0-1.19 0.17-1.58 0.49-0.39 0.3-0.7 0.78-0.89 1.49l-13.41 51.21 0.02-0.19c0 0.25-0.06 0.33-0.1 0.41v0.07l-0.06 0.15c-0.59 1.4-1.34 2.52-2.42 3.49-1.14 1.01-2.49 1.41-3.95 1.41-1.45 0-2.87-0.38-4.02-1.39-1.25-0.89-2.01-2.17-2.48-3.7l-22.28-74.05 0.01 0.05c-0.38-1.01-0.49-2.11-0.49-3.27 0-1.66 0.38-3.13 1.45-4.2 1.02-1.02 2.39-1.55 4.09-1.55zm242.02 0c1.73 0 3.27 0.64 4.5 1.75l0.03 0.02 0.03 0.03c1.11 1.23 1.75 2.77 1.75 4.51v60.52c0 2.69 0.43 4.75 1.43 6.36l0.02 0.01v0.02c0.91 1.62 1.94 2.27 3.32 2.27h2.78c1.63 0 3.09 0.65 4.12 1.81l0.01 0.01 0.01 0.02c0.98 1.22 1.61 2.74 1.61 4.47 0 1.9-0.93 3.49-2.4 4.6h-0.01c-1.6 1.23-3.58 1.71-5.89 1.71h-0.23c-3.33 0-6.39-0.81-9.08-2.68-2.67-1.86-4.76-4.42-6.14-7.64-1.49-3.23-2.17-6.88-2.17-10.96v-60.52c0-1.7 0.52-3.28 1.78-4.54 1.13-1.13 2.69-1.77 4.53-1.77zm83.6 0c1.93 0 3.5 0.64 4.64 1.77 1.26 1.26 1.78 2.85 1.78 4.65v50.55 2 23.61c0 1.6-0.54 3.07-1.78 4.31-1.14 1.14-2.61 1.67-4.31 1.67h-24.5-0.22-0.44c-5.78 0-11.13-1.37-15.9-4.09-4.78-2.73-8.65-6.61-11.38-11.38s-4.09-10.13-4.09-16.12c0-5.77 1.36-11.22 3.86-15.99s6.03-8.54 10.46-11.38h0.01 0.01c4.44-2.74 9.36-4.11 14.81-4.11 4.43 0 8.54 0.91 12.31 2.74h0.01c3.25 1.63 5.94 3.78 8.31 6.29v-28.1c0-1.84 0.65-3.41 1.89-4.65l0.01-0.01 0.01-0.01c1.23-1.11 2.77-1.75 4.51-1.75zm-115.75 25.27c3.97 0 7.18 0.67 9.55 1.86h0.01l0.01 0.01c2.35 1.29 3.73 3.01 3.73 5.11 0 0.66-0.11 1.14-0.11 1.11v0.1l-0.03 0.1c-0.36 1.34-1 2.39-1.91 3.09-0.9 0.7-2.03 1.02-3.27 1.02-0.42 0-1.06 0-1.8-0.23-2.98-0.44-5.39-0.76-7.06-0.76-5.21 0-9.35 1.19-12.4 3.5l-0.01 0.01c-3.15 2.31-4.56 5.33-4.56 9.24v32.37c0 1.93-0.6 3.56-1.66 4.63-1.09 1.21-2.76 1.68-4.65 1.68-1.9 0-3.54-0.46-4.63-1.54-1.21-1.09-1.69-2.77-1.69-4.77v-49.55c0-1.9 0.51-3.49 1.67-4.65 1.07-1.06 2.71-1.66 4.65-1.66 1.96 0 3.58 0.51 4.68 1.62 1.11 1.11 1.63 2.73 1.63 4.69v0.35c2.02-2 4.3-3.73 7.11-5.04h0.01c3.31-1.49 6.86-2.29 10.73-2.29zm-81.75 0.22c5.89 0 11.24 1.36 16.02 4.09 4.76 2.73 8.42 6.39 11.15 11.15 2.73 4.78 4.09 10.25 4.09 16.35s-1.36 11.45-3.98 16.22v0.01c-2.72 4.76-6.38 8.54-11.15 11.26-4.79 2.74-10.15 3.99-16.13 3.99-6.09 0-11.45-1.25-16.23-3.99-4.77-2.72-8.53-6.48-11.15-11.26-2.73-4.78-3.99-10.14-3.99-16.23s1.25-11.56 3.99-16.34c2.62-4.78 6.39-8.44 11.15-11.16 4.77-2.72 10.13-4.09 16.23-4.09zm249.13 0c4.85 0 9.27 0.79 13.15 2.39 3.87 1.59 7.08 3.88 9.39 6.65l0.02 0.02 0.01 0.02c0.94 1.29 1.59 2.63 1.59 4 0 1.58-0.84 2.94-2.17 4.03l-0.01 0.01-0.01 0.01c-1.04 0.78-2.26 1.04-3.57 1.04-2.16 0-4.07-0.77-5.73-2.31l0.01 0.01c-1.82-1.61-3.73-2.77-5.61-3.39-2.03-0.64-4.49-1.07-7.29-1.07-3.34 0-5.99 0.64-8.08 1.69-2.03 1.01-2.79 2.34-2.79 4.08 0 1.44 0.29 2.45 0.94 3.3l0.02 0.02 0.02 0.02c0.49 0.75 1.81 1.62 3.87 2.49h0.01l0.01 0.01c1.88 0.84 4.84 1.61 8.81 2.38l0.01 0.01c8.04 1.67 13.91 3.88 17.42 6.93 3.47 3.01 5.36 7.03 5.36 11.78 0 3.58-1.05 6.84-2.89 9.72v0.01l-0.01 0.01c-1.98 2.9-4.87 5.21-8.53 6.81-3.68 1.61-8.1 2.4-13.17 2.4-5.18 0-9.93-0.79-14.44-2.37-4.5-1.58-8.14-3.61-10.7-6.28-1.16-1.04-1.68-2.49-1.68-3.98 0-1.97 0.81-3.72 2.53-4.95 1.42-1.06 2.88-1.7 4.33-1.7 1.68 0 3.33 0.78 4.76 2.22l0.02 0.02 0.02 0.03c1.22 1.42 3.22 2.81 6.01 3.88h0.01c2.68 1.07 5.57 1.61 8.7 1.61 4.13 0 7.2-0.66 9.35-1.99l0.01-0.01h0.01c2.16-1.24 3.16-2.81 3.16-4.99 0-1.93-1.02-3.56-3.11-5.02-2.15-1.43-5.96-2.66-11.34-3.76-7.17-1.34-12.61-3.5-16.31-6.55s-5.6-7.02-5.6-11.72c0-3.69 1.06-7.01 3.4-9.7 2.2-2.55 5.09-4.51 8.74-5.87l0.01-0.01c3.52-1.24 7.27-1.93 11.34-1.93zm-76.46 11.52c-3.52 0-6.7 0.95-9.59 2.66-2.86 1.7-5.09 4.14-6.81 7.15-1.71 2.98-2.56 6.38-2.56 10.15 0 3.87 0.85 7.28 2.56 10.26v0.01c1.72 3.12 3.95 5.55 6.82 7.25s6.05 2.55 9.58 2.55c3.65 0 6.82-0.85 9.7-2.55 2.86-1.7 5.08-4.13 6.69-7.23l0.01-0.02v-0.01c1.7-2.97 2.45-6.37 2.45-10.26 0-3.78-0.75-7.18-2.45-10.15v-0.01l-0.01-0.01c-1.6-2.99-3.83-5.43-6.7-7.13-2.88-1.71-6.06-2.66-9.69-2.66zm-172.67 0c-3.65 0-6.93 0.85-9.8 2.55s-5.1 4.14-6.7 7.13l-0.01 0.01c-1.7 3.09-2.45 6.49-2.45 10.38s0.75 7.41 2.45 10.37v0.01l0.01 0.01c1.6 2.99 3.82 5.31 6.7 7.02 2.87 1.7 6.15 2.55 9.8 2.55s6.82-0.85 9.7-2.55c2.87-1.71 5.09-4.03 6.69-7.02 1.6-2.98 2.47-6.51 2.47-10.39 0-3.87-0.86-7.28-2.47-10.39-1.6-2.99-3.83-5.43-6.69-7.13-2.88-1.7-6.05-2.55-9.7-2.55z" fill="#fcfcfc" transform="translate(153.6 115.2) scale(0.7)" />
</svg>